<svg width="25" height="24" viewBox="0 0 25 24" fill="none" xmlns="http://www.w3.org/2000/svg">
<path d="M12.125 22C17.6478 22 22.125 17.5228 22.125 12C22.125 6.47715 17.6478 2 12.125 2C6.60215 2 2.125 6.47715 2.125 12C2.125 17.5228 6.60215 22 12.125 22Z" stroke="black" stroke-width="1.5" stroke-linecap="round" stroke-linejoin="round"/>
<path d="M7.625 17C9.957 14.558 14.268 14.443 16.625 17M14.62 9.5C14.62 10.88 13.5 12 12.117 12C11.7884 12.0005 11.4628 11.9363 11.1591 11.8109C10.8553 11.6854 10.5792 11.5014 10.3466 11.2692C10.1141 11.037 9.92957 10.7612 9.80368 10.4576C9.6778 10.1541 9.613 9.82864 9.613 9.5C9.613 8.12 10.733 7 12.117 7C12.4456 6.99961 12.771 7.06398 13.0746 7.18944C13.3783 7.3149 13.6542 7.49899 13.8867 7.73117C14.1192 7.96336 14.3036 8.23909 14.4294 8.5426C14.5552 8.84611 14.62 9.17144 14.62 9.5Z" stroke="black" stroke-width="1.5" stroke-linecap="round" stroke-linejoin="round"/>
</svg>
